<?xml version="1.0" encoding="utf-8"?>
<!-- Generator: Adobe Illustrator 26.5.0, SVG Export Plug-In . SVG Version: 6.00 Build 0)  -->
<svg version="1.1" id="Layer_1" xmlns="http://www.w3.org/2000/svg" xmlns:xlink="http://www.w3.org/1999/xlink" x="0px" y="0px"
	 viewBox="0 0 1902.01 533.65" style="enable-background:new 0 0 1902.01 533.65;" xml:space="preserve">
<style type="text/css">
	.st0{fill:#404041;}
	.st1{fill:#404041;stroke:#424143;stroke-miterlimit:10;}
	.st2{fill:#EC1C24;}
	.st3{fill:#00ACD3;}
	.st4{fill:#FFFFFF;}
	.st5{fill:#009345;}
	.st6{fill:#FFFFFF;stroke:#FFFFFF;stroke-width:36;stroke-miterlimit:10;}
	.st7{fill:#1068B2;}
	.st8{fill:#946DAE;}
	.st9{fill:#F48120;}
	.st10{fill:#FFCA05;}
</style>
<g>
	<g>
		<g>
			<g>
				<path class="st6" d="M559.49,184.58c-5.14,36.54-26.78,107.47-117.29,187.81L289.64,509.45L137.15,372.39
					C46.64,292.06,25,221.13,19.8,184.58C5.06,80.21,83.53,18,157.32,18c61.69-0.06,114.02,40.05,132.32,95.6
					C308,58.05,360.28,17.94,422.02,18C495.76,18,574.28,80.21,559.49,184.58z"/>
			</g>
		</g>
		<path class="st7" d="M196.53,181.83c-4.46-9.78-7.01-20.61-7.01-32.05c0-42.73,34.71-77.5,77.41-77.62
			c-25.52-32.68-65.24-53.71-109.91-53.71c-16.05,0-31.44,2.74-45.79,7.73C116.45,83.26,151.38,147.45,196.53,181.83z"/>
		<path class="st2" d="M476.44,29.51c-16.74-7.11-35.16-11.06-54.5-11.06c-49.03,0-92.09,25.34-116.95,63.6
			c23.71,13.3,39.8,38.65,39.8,67.72c0,11.1-2.38,21.64-6.6,31.2C394.65,147.32,451.75,86.06,476.44,29.51z"/>
		
			<ellipse transform="matrix(0.9871 -0.1602 0.1602 0.9871 -20.543 44.7272)" class="st8" cx="267.15" cy="149.78" rx="55.84" ry="55.84"/>
		<path class="st9" d="M557.55,125.36c-128.02,61.55-200.43,140.18-202.58,186.8c-1.17,25.25,25.19,61.71,70.48,75.94l17.27-15.47
			C581.62,248.51,562.61,147.54,557.55,125.36z"/>
		<path class="st10" d="M314.33,417.74c-28.04,0-53.41,30.18-60.9,59.89l36.04,32.29l75.03-67.22
			C349.31,427.86,332.84,417.74,314.33,417.74z"/>
		<path class="st5" d="M237.01,355.18c0.61,27.21-12.69,57.37-28.77,81.96l27.31,24.47c12.58-34.53,43.02-65.65,78.78-65.65
			c25.95,0,47.42,13.24,66.44,32.17l26.9-24.1c-40.11-16.73-77.04-50.14-74.46-92.87c3.57-59.07,95.77-148.31,217.59-206.64
			c-11.19-26.97-30.61-49.65-55.12-64.95c-17.08,38.1-43.43,72.1-72.8,101.52c-21.3,21.33-45.28,40.94-71.29,56.71
			c-26.9,16.31-57.48,30.77-89.59,30.77c-83.09,0-159.86-101.31-171.66-193.16c-29.33,16-52.27,42.22-64.06,73.87
			C179.58,224.04,235.56,290.2,237.01,355.18z"/>
		<path class="st3" d="M215.24,355.67c-1.27-56.52-53.35-117.13-195.21-223.86c-4,13.47-15.28,123.01,116.22,240.82l55.43,49.66
			C204.93,401.19,215.7,376.32,215.24,355.67z"/>
	</g>
	<g>
		<g>
			<g>
				<path class="st0" d="M634.51,374.94c-2.77-2.16-3.38-5.55-1.54-8.93l14.78-23.42c1.54-3.08,4.62-3.7,7.7-1.54
					c18.18,13.25,38.2,19.41,59.15,19.41c19.41,0,33.89-8.32,33.89-25.88c0-17.25-12.32-24.95-44.67-33.89
					c-36.66-10.17-65.32-24.34-65.32-62.23c0-38.2,31.42-63.16,77.95-63.16c28.96,0,51.76,7.4,68.09,18.8
					c3.08,2.16,3.08,5.24,1.23,8.01l-13.25,21.87c-1.85,3.39-5.23,4-8.32,1.85c-13.56-8.63-28.65-13.56-48.06-13.56
					c-19.72,0-34.51,7.4-34.51,23.41c0,15.71,14.17,20.64,44.06,29.58c36.66,10.78,65.01,24.95,65.01,66.54
					c0,40.36-30.5,65.62-76.71,65.62C680.42,397.43,654.54,389.11,634.51,374.94z"/>
				<path class="st0" d="M1097.57,184.54l-63.46,205.18c-0.93,3.39-3.39,4.93-6.47,4.93h-22.18c-3.08,0-5.24-1.54-6.16-4.62
					l-47.75-147.26l-46.52,147.26c-0.92,3.08-3.08,4.62-6.16,4.62h-22.49c-3.08,0-5.55-1.54-6.17-4.93l-63.46-205.18
					c-0.92-4.01,0.93-6.47,4.93-6.47h32.96c3.39,0,5.55,1.85,6.47,4.93l19.41,73.94L889,334.58l22.49-76.1l24.65-75.79
					c0.92-3.39,3.39-4.62,6.47-4.62h18.49c3.08,0,5.54,1.23,6.47,4.62l24.95,75.79l23.72,75.17l20.64-77.94l19.1-72.71
					c0.92-3.08,2.77-4.93,6.16-4.93h30.5C1096.64,178.07,1098.8,180.54,1097.57,184.54z"/>
				<path class="st0" d="M1297.84,394.65h-32.97c-3.08,0-5.23-1.54-6.47-4.62L1243,352.75h-92.73l-15.41,37.28
					c-1.23,3.08-3.38,4.62-6.47,4.62h-32.97c-4.31,0-6.16-2.47-4.62-6.47l90.27-205.8c0.92-2.77,3.7-4.31,6.78-4.31h18.49
					c3.08,0,5.54,1.54,6.78,4.31l89.34,205.8C1304,392.19,1302.15,394.65,1297.84,394.65z M1163.82,316.71h65.62l-32.65-78.25
					L1163.82,316.71z"/>
				<path class="st0" d="M1317.55,374.94c-2.77-2.16-3.38-5.55-1.54-8.93l14.78-23.42c1.54-3.08,4.62-3.7,7.7-1.54
					c18.18,13.25,38.2,19.41,59.15,19.41c19.41,0,33.89-8.32,33.89-25.88c0-17.25-12.32-24.95-44.67-33.89
					c-36.66-10.17-65.32-24.34-65.32-62.23c0-38.2,31.42-63.16,77.95-63.16c28.96,0,51.76,7.4,68.09,18.8
					c3.08,2.16,3.08,5.24,1.23,8.01l-13.25,21.87c-1.85,3.39-5.23,4-8.32,1.85c-13.56-8.63-28.65-13.56-48.06-13.56
					c-19.72,0-34.51,7.4-34.51,23.41c0,15.71,14.17,20.64,44.06,29.58c36.66,10.78,65.01,24.95,65.01,66.54
					c0,40.36-30.5,65.62-76.71,65.62C1363.46,397.43,1337.58,389.11,1317.55,374.94z"/>
				<path class="st0" d="M1676.79,183.62v26.19c0,3.69-2.16,5.85-5.85,5.85h-65.93v173.45c0,3.39-2.16,5.55-5.85,5.55h-31.12
					c-3.7,0-5.55-2.16-5.55-5.55V215.66h-66.54c-3.7,0-5.55-2.16-5.55-5.85v-26.19c0-3.39,1.85-5.55,5.55-5.55h174.98
					C1674.63,178.07,1676.79,180.23,1676.79,183.62z"/>
				<path class="st0" d="M1902.01,183.62v205.49c0,3.39-2.16,5.55-5.55,5.55h-31.12c-3.7,0-5.85-2.16-5.85-5.55V305h-110.91v84.11
					c0,3.39-2.16,5.55-5.55,5.55h-31.12c-3.7,0-5.85-2.16-5.85-5.55V183.62c0-3.39,2.16-5.55,5.85-5.55h31.12
					c3.39,0,5.55,2.16,5.55,5.55v83.8h110.91v-83.8c0-3.39,2.16-5.55,5.85-5.55h31.12C1899.85,178.07,1902.01,180.23,1902.01,183.62
					z"/>
			</g>
		</g>
	</g>
</g>
</svg>
